<mxfile host="app.diagrams.net" agent="Mozilla/5.0 (Macintosh; Intel Mac OS X 10_15_7) AppleWebKit/537.36 (KHTML, like Gecko) Chrome/136.0.0.0 Safari/537.36" version="26.2.14">
  <diagram name="第 1 页" id="i_PyNug8uWYy_CJ6v1HJ">
    <mxGraphModel dx="1720" dy="1171" grid="1" gridSize="10" guides="1" tooltips="1" connect="1" arrows="1" fold="1" page="1" pageScale="1" pageWidth="4681" pageHeight="3300" math="0" shadow="0">
      <root>
        <mxCell id="0" />
        <mxCell id="1" parent="0" />
        <mxCell id="KJPA0pbkYJogIbTHBdZs-1" style="edgeStyle=orthogonalEdgeStyle;rounded=0;orthogonalLoop=1;jettySize=auto;html=1;exitX=1;exitY=0.5;exitDx=0;exitDy=0;entryX=0;entryY=0.5;entryDx=0;entryDy=0;" edge="1" parent="1" source="KJPA0pbkYJogIbTHBdZs-2" target="KJPA0pbkYJogIbTHBdZs-8">
          <mxGeometry relative="1" as="geometry" />
        </mxCell>
        <mxCell id="KJPA0pbkYJogIbTHBdZs-2" value="UI for Store" style="rounded=1;whiteSpace=wrap;html=1;" vertex="1" parent="1">
          <mxGeometry x="90" y="200" width="120" height="60" as="geometry" />
        </mxCell>
        <mxCell id="KJPA0pbkYJogIbTHBdZs-3" style="edgeStyle=orthogonalEdgeStyle;rounded=0;orthogonalLoop=1;jettySize=auto;html=1;exitX=1;exitY=0.5;exitDx=0;exitDy=0;entryX=0;entryY=0.5;entryDx=0;entryDy=0;" edge="1" parent="1" source="KJPA0pbkYJogIbTHBdZs-4" target="KJPA0pbkYJogIbTHBdZs-12">
          <mxGeometry relative="1" as="geometry" />
        </mxCell>
        <mxCell id="KJPA0pbkYJogIbTHBdZs-4" value="UI for Customer" style="rounded=1;whiteSpace=wrap;html=1;" vertex="1" parent="1">
          <mxGeometry x="90" y="510" width="120" height="60" as="geometry" />
        </mxCell>
        <mxCell id="KJPA0pbkYJogIbTHBdZs-6" style="edgeStyle=orthogonalEdgeStyle;rounded=0;orthogonalLoop=1;jettySize=auto;html=1;exitX=1;exitY=0.5;exitDx=0;exitDy=0;entryX=0;entryY=0.5;entryDx=0;entryDy=0;" edge="1" parent="1" source="KJPA0pbkYJogIbTHBdZs-8" target="KJPA0pbkYJogIbTHBdZs-13">
          <mxGeometry relative="1" as="geometry" />
        </mxCell>
        <mxCell id="KJPA0pbkYJogIbTHBdZs-7" style="edgeStyle=orthogonalEdgeStyle;rounded=0;orthogonalLoop=1;jettySize=auto;html=1;exitX=1;exitY=0.5;exitDx=0;exitDy=0;entryX=0;entryY=0.5;entryDx=0;entryDy=0;" edge="1" parent="1" source="KJPA0pbkYJogIbTHBdZs-8" target="KJPA0pbkYJogIbTHBdZs-35">
          <mxGeometry relative="1" as="geometry" />
        </mxCell>
        <mxCell id="KJPA0pbkYJogIbTHBdZs-8" value="Load&lt;div&gt;Balancer&lt;/div&gt;" style="rhombus;whiteSpace=wrap;html=1;fillColor=#CCCCCC;" vertex="1" parent="1">
          <mxGeometry x="300" y="190" width="80" height="80" as="geometry" />
        </mxCell>
        <mxCell id="KJPA0pbkYJogIbTHBdZs-9" style="edgeStyle=orthogonalEdgeStyle;rounded=0;orthogonalLoop=1;jettySize=auto;html=1;exitX=1;exitY=0.5;exitDx=0;exitDy=0;entryX=0;entryY=0.5;entryDx=0;entryDy=0;" edge="1" parent="1" source="KJPA0pbkYJogIbTHBdZs-12" target="KJPA0pbkYJogIbTHBdZs-42">
          <mxGeometry relative="1" as="geometry">
            <mxPoint x="480" y="431.25" as="targetPoint" />
          </mxGeometry>
        </mxCell>
        <mxCell id="KJPA0pbkYJogIbTHBdZs-10" style="edgeStyle=orthogonalEdgeStyle;rounded=0;orthogonalLoop=1;jettySize=auto;html=1;exitX=1;exitY=0.5;exitDx=0;exitDy=0;entryX=0;entryY=0.5;entryDx=0;entryDy=0;" edge="1" parent="1" source="KJPA0pbkYJogIbTHBdZs-12" target="KJPA0pbkYJogIbTHBdZs-17">
          <mxGeometry relative="1" as="geometry" />
        </mxCell>
        <mxCell id="KJPA0pbkYJogIbTHBdZs-11" style="edgeStyle=orthogonalEdgeStyle;rounded=0;orthogonalLoop=1;jettySize=auto;html=1;exitX=1;exitY=0.5;exitDx=0;exitDy=0;entryX=0;entryY=0.5;entryDx=0;entryDy=0;" edge="1" parent="1" source="KJPA0pbkYJogIbTHBdZs-12" target="KJPA0pbkYJogIbTHBdZs-26">
          <mxGeometry relative="1" as="geometry" />
        </mxCell>
        <mxCell id="KJPA0pbkYJogIbTHBdZs-52" style="edgeStyle=orthogonalEdgeStyle;rounded=0;orthogonalLoop=1;jettySize=auto;html=1;exitX=1;exitY=0.5;exitDx=0;exitDy=0;entryX=0;entryY=0.5;entryDx=0;entryDy=0;" edge="1" parent="1" source="KJPA0pbkYJogIbTHBdZs-12" target="KJPA0pbkYJogIbTHBdZs-51">
          <mxGeometry relative="1" as="geometry" />
        </mxCell>
        <mxCell id="KJPA0pbkYJogIbTHBdZs-12" value="Load&lt;div&gt;Balancer&lt;/div&gt;" style="rhombus;whiteSpace=wrap;html=1;fillColor=#CCCCCC;" vertex="1" parent="1">
          <mxGeometry x="300" y="500" width="80" height="80" as="geometry" />
        </mxCell>
        <mxCell id="KJPA0pbkYJogIbTHBdZs-13" value="Store Service" style="rounded=1;whiteSpace=wrap;html=1;" vertex="1" parent="1">
          <mxGeometry x="480" y="100" width="120" height="60" as="geometry" />
        </mxCell>
        <mxCell id="KJPA0pbkYJogIbTHBdZs-14" style="edgeStyle=orthogonalEdgeStyle;rounded=0;orthogonalLoop=1;jettySize=auto;html=1;exitX=1;exitY=0.5;exitDx=0;exitDy=0;entryX=0;entryY=0.5;entryDx=0;entryDy=0;" edge="1" parent="1" target="KJPA0pbkYJogIbTHBdZs-49">
          <mxGeometry relative="1" as="geometry">
            <mxPoint x="600" y="540" as="sourcePoint" />
            <mxPoint x="687.5" y="538.7142857142858" as="targetPoint" />
          </mxGeometry>
        </mxCell>
        <mxCell id="KJPA0pbkYJogIbTHBdZs-16" style="edgeStyle=orthogonalEdgeStyle;rounded=0;orthogonalLoop=1;jettySize=auto;html=1;exitX=0.5;exitY=1;exitDx=0;exitDy=0;entryX=0.5;entryY=0;entryDx=0;entryDy=0;" edge="1" parent="1" source="KJPA0pbkYJogIbTHBdZs-17" target="KJPA0pbkYJogIbTHBdZs-19">
          <mxGeometry relative="1" as="geometry" />
        </mxCell>
        <mxCell id="KJPA0pbkYJogIbTHBdZs-17" value="Booking Service" style="rounded=1;whiteSpace=wrap;html=1;" vertex="1" parent="1">
          <mxGeometry x="480" y="620" width="120" height="60" as="geometry" />
        </mxCell>
        <mxCell id="KJPA0pbkYJogIbTHBdZs-18" style="edgeStyle=orthogonalEdgeStyle;rounded=0;orthogonalLoop=1;jettySize=auto;html=1;exitX=0.5;exitY=1;exitDx=0;exitDy=0;entryX=0.5;entryY=0;entryDx=0;entryDy=0;" edge="1" parent="1" source="KJPA0pbkYJogIbTHBdZs-19" target="KJPA0pbkYJogIbTHBdZs-21">
          <mxGeometry relative="1" as="geometry" />
        </mxCell>
        <mxCell id="KJPA0pbkYJogIbTHBdZs-19" value="Payment Service" style="rounded=1;whiteSpace=wrap;html=1;" vertex="1" parent="1">
          <mxGeometry x="480" y="730" width="120" height="60" as="geometry" />
        </mxCell>
        <mxCell id="KJPA0pbkYJogIbTHBdZs-20" style="edgeStyle=orthogonalEdgeStyle;rounded=0;orthogonalLoop=1;jettySize=auto;html=1;exitX=1;exitY=0.5;exitDx=0;exitDy=0;entryX=1;entryY=0.5;entryDx=0;entryDy=0;entryPerimeter=0;" edge="1" parent="1" source="KJPA0pbkYJogIbTHBdZs-21" target="KJPA0pbkYJogIbTHBdZs-28">
          <mxGeometry relative="1" as="geometry">
            <mxPoint x="687.5" y="750" as="targetPoint" />
            <Array as="points">
              <mxPoint x="970" y="840" />
              <mxPoint x="970" y="330" />
            </Array>
          </mxGeometry>
        </mxCell>
        <mxCell id="KJPA0pbkYJogIbTHBdZs-21" value="Booking Management Service" style="rounded=1;whiteSpace=wrap;html=1;" vertex="1" parent="1">
          <mxGeometry x="465" y="830" width="150" height="60" as="geometry" />
        </mxCell>
        <mxCell id="KJPA0pbkYJogIbTHBdZs-22" value="Store Database" style="shape=cylinder3;whiteSpace=wrap;html=1;boundedLbl=1;backgroundOutline=1;size=15;" vertex="1" parent="1">
          <mxGeometry x="700" y="90" width="60" height="80" as="geometry" />
        </mxCell>
        <mxCell id="KJPA0pbkYJogIbTHBdZs-23" style="edgeStyle=orthogonalEdgeStyle;rounded=0;orthogonalLoop=1;jettySize=auto;html=1;exitX=1;exitY=0.5;exitDx=0;exitDy=0;entryX=0;entryY=0.5;entryDx=0;entryDy=0;entryPerimeter=0;" edge="1" parent="1" source="KJPA0pbkYJogIbTHBdZs-13" target="KJPA0pbkYJogIbTHBdZs-22">
          <mxGeometry relative="1" as="geometry" />
        </mxCell>
        <mxCell id="KJPA0pbkYJogIbTHBdZs-24" style="edgeStyle=orthogonalEdgeStyle;rounded=0;orthogonalLoop=1;jettySize=auto;html=1;exitX=0;exitY=0.5;exitDx=0;exitDy=0;exitPerimeter=0;" edge="1" parent="1" source="KJPA0pbkYJogIbTHBdZs-25" target="KJPA0pbkYJogIbTHBdZs-17">
          <mxGeometry relative="1" as="geometry" />
        </mxCell>
        <mxCell id="KJPA0pbkYJogIbTHBdZs-25" value="Order Database" style="shape=cylinder3;whiteSpace=wrap;html=1;boundedLbl=1;backgroundOutline=1;size=15;" vertex="1" parent="1">
          <mxGeometry x="700" y="610" width="60" height="80" as="geometry" />
        </mxCell>
        <mxCell id="KJPA0pbkYJogIbTHBdZs-26" value="Customer Service" style="rounded=1;whiteSpace=wrap;html=1;" vertex="1" parent="1">
          <mxGeometry x="480" y="300" width="120" height="60" as="geometry" />
        </mxCell>
        <mxCell id="KJPA0pbkYJogIbTHBdZs-28" value="Custom Database" style="shape=cylinder3;whiteSpace=wrap;html=1;boundedLbl=1;backgroundOutline=1;size=15;" vertex="1" parent="1">
          <mxGeometry x="870" y="290" width="60" height="80" as="geometry" />
        </mxCell>
        <mxCell id="KJPA0pbkYJogIbTHBdZs-29" style="edgeStyle=orthogonalEdgeStyle;rounded=0;orthogonalLoop=1;jettySize=auto;html=1;exitX=1;exitY=0.5;exitDx=0;exitDy=0;entryX=0;entryY=0.5;entryDx=0;entryDy=0;entryPerimeter=0;" edge="1" parent="1" source="KJPA0pbkYJogIbTHBdZs-26" target="KJPA0pbkYJogIbTHBdZs-28">
          <mxGeometry relative="1" as="geometry" />
        </mxCell>
        <mxCell id="KJPA0pbkYJogIbTHBdZs-34" style="edgeStyle=orthogonalEdgeStyle;rounded=0;orthogonalLoop=1;jettySize=auto;html=1;exitX=1;exitY=0.5;exitDx=0;exitDy=0;" edge="1" parent="1" source="KJPA0pbkYJogIbTHBdZs-35" target="KJPA0pbkYJogIbTHBdZs-37">
          <mxGeometry relative="1" as="geometry" />
        </mxCell>
        <mxCell id="KJPA0pbkYJogIbTHBdZs-35" value="Seat Service" style="rounded=1;whiteSpace=wrap;html=1;" vertex="1" parent="1">
          <mxGeometry x="480" y="200" width="120" height="60" as="geometry" />
        </mxCell>
        <mxCell id="KJPA0pbkYJogIbTHBdZs-37" value="Seat Database" style="shape=cylinder3;whiteSpace=wrap;html=1;boundedLbl=1;backgroundOutline=1;size=15;" vertex="1" parent="1">
          <mxGeometry x="700" y="190" width="60" height="80" as="geometry" />
        </mxCell>
        <mxCell id="KJPA0pbkYJogIbTHBdZs-38" value="" style="endArrow=classic;startArrow=classic;html=1;rounded=0;entryX=0.5;entryY=1;entryDx=0;entryDy=0;exitX=0.5;exitY=0;exitDx=0;exitDy=0;" edge="1" parent="1" source="KJPA0pbkYJogIbTHBdZs-4" target="KJPA0pbkYJogIbTHBdZs-2">
          <mxGeometry width="50" height="50" relative="1" as="geometry">
            <mxPoint x="680" y="440" as="sourcePoint" />
            <mxPoint x="730" y="390" as="targetPoint" />
          </mxGeometry>
        </mxCell>
        <mxCell id="KJPA0pbkYJogIbTHBdZs-41" style="edgeStyle=orthogonalEdgeStyle;rounded=0;orthogonalLoop=1;jettySize=auto;html=1;exitX=1;exitY=0.5;exitDx=0;exitDy=0;entryX=0;entryY=0.5;entryDx=0;entryDy=0;" edge="1" parent="1" source="KJPA0pbkYJogIbTHBdZs-42" target="KJPA0pbkYJogIbTHBdZs-44">
          <mxGeometry relative="1" as="geometry" />
        </mxCell>
        <mxCell id="KJPA0pbkYJogIbTHBdZs-42" value="Google Map API" style="rounded=0;whiteSpace=wrap;html=1;" vertex="1" parent="1">
          <mxGeometry x="480" y="390" width="85" height="85" as="geometry" />
        </mxCell>
        <mxCell id="KJPA0pbkYJogIbTHBdZs-43" style="edgeStyle=orthogonalEdgeStyle;rounded=0;orthogonalLoop=1;jettySize=auto;html=1;exitX=1;exitY=0.5;exitDx=0;exitDy=0;entryX=1;entryY=0.5;entryDx=0;entryDy=0;entryPerimeter=0;" edge="1" parent="1" source="KJPA0pbkYJogIbTHBdZs-44" target="KJPA0pbkYJogIbTHBdZs-22">
          <mxGeometry relative="1" as="geometry">
            <mxPoint x="840" y="432.5" as="targetPoint" />
            <Array as="points">
              <mxPoint x="790" y="432" />
              <mxPoint x="790" y="130" />
            </Array>
          </mxGeometry>
        </mxCell>
        <mxCell id="KJPA0pbkYJogIbTHBdZs-44" value="Search Service" style="rounded=1;whiteSpace=wrap;html=1;" vertex="1" parent="1">
          <mxGeometry x="640" y="403.75" width="120" height="57.5" as="geometry" />
        </mxCell>
        <mxCell id="KJPA0pbkYJogIbTHBdZs-49" value="Redis" style="rhombus;whiteSpace=wrap;html=1;" vertex="1" parent="1">
          <mxGeometry x="690" y="500" width="80" height="80" as="geometry" />
        </mxCell>
        <mxCell id="KJPA0pbkYJogIbTHBdZs-50" style="edgeStyle=orthogonalEdgeStyle;rounded=0;orthogonalLoop=1;jettySize=auto;html=1;exitX=1;exitY=0.5;exitDx=0;exitDy=0;entryX=1;entryY=0.5;entryDx=0;entryDy=0;entryPerimeter=0;" edge="1" parent="1" source="KJPA0pbkYJogIbTHBdZs-49" target="KJPA0pbkYJogIbTHBdZs-25">
          <mxGeometry relative="1" as="geometry">
            <mxPoint x="760" y="940" as="targetPoint" />
            <Array as="points">
              <mxPoint x="820" y="540" />
              <mxPoint x="820" y="650" />
            </Array>
          </mxGeometry>
        </mxCell>
        <mxCell id="KJPA0pbkYJogIbTHBdZs-51" value="Seat Price Service" style="rounded=1;whiteSpace=wrap;html=1;" vertex="1" parent="1">
          <mxGeometry x="480" y="510" width="120" height="60" as="geometry" />
        </mxCell>
      </root>
    </mxGraphModel>
  </diagram>
</mxfile>
